<svg id="Calque_1" data-name="Calque 1" xmlns="http://www.w3.org/2000/svg" viewBox="120 110 330 327"><defs><style>.cls-1{fill:none;}</style><style>.cls-2{fill:#ffff;}</style> <style>.cls-3{fill:#000000;}</style> </defs><path class="cls-1" d="M59.17,44.24H511.76V527H59.17ZM265.63,281.58l-.51-.21c0-.63,0-1.27,0-1.9.17-3.34.36-6.68.53-10,0-1.05,0-2.11.08-3.16.4-6.22.95-12.44,1.21-18.67.25-5.67,2.51-9.48,8-11.8,4.38-1.86,8.39-4.67,12.36-7.36,3.38-2.31,4-4.5,2.82-7.7a21.38,21.38,0,0,1-.16-6.87c1.09-3.77-.54-6.52-4.37-7.42-2.63-.62-5.24-1.3-7.86-1.94a62.92,62.92,0,0,0-8-1.87A22.65,22.65,0,0,0,254.9,206c-5.85,3.72-9.5,8.77-9.43,16,0,3.5-.18,7-.3,10.5a3,3,0,0,1-.2,1c-3.37,8.08-6.85,16.11-10.09,24.24-3.3,8.29-7.24,16.42-7.51,25.63-.19,6.2-.52,12.41-.79,18.61a18.26,18.26,0,0,1-.13,3c-.66,3.07-1.51,6.1-2.13,9.17a7.7,7.7,0,0,0,2.06,7.19c4.72,4.82,10.85,4.8,16.94,4.68,3.2-.07,6.39-.64,9.58-.6,4.15.06,8.29.46,12.43.78,2.73.21,5.45.55,8.18.8a55.37,55.37,0,0,0,7.46.58c5.69-.27,11.39-.57,17-1.35a136.4,136.4,0,0,0,15.08-3.15c5.57-1.42,11.13-2.94,16.53-4.86,4.95-1.75,9.56-4.38,12.63-8.83a32.62,32.62,0,0,0,3.2-6.87c2.95-7.72,1.85-14.85-3.54-21.18-1.42-1.67-3.15-3.07-4.64-4.69a46.79,46.79,0,0,0-16.79-11.42A45,45,0,0,0,296.05,262c-4,.6-8.32,1.18-11.85,3-5.73,3-10.56,7.41-14.88,12.29C268.08,278.73,266.86,280.16,265.63,281.58ZM208.3,374.13c2.49,6,5,11.47,8.56,16.42,2.23,3.12,4.46,6.08,8.74,7.1a83.32,83.32,0,0,1,13.29,4.85c5.49,2.35,10.93,4.83,16.23,7.57,7.84,4.07,15.53,8.43,23.29,12.65a82.84,82.84,0,0,0,21.46,8.47c3.58.81,7,2.08,10.82,2.2,8.69.28,17.31.34,25.8-2A77.7,77.7,0,0,0,360,420.74a66.18,66.18,0,0,0,16.54-16.63c1.59-2.24,2.9-4.69,4.34-7.05a77.3,77.3,0,0,0-7.82,1.4c-4.71,1-9.43,1.82-14.14,2.74-2.06.4-4.13.77-6.16,1.3a12.5,12.5,0,0,0-3.23,1.33c-3.2,1.91-6.24,4.09-9.51,5.85a42.08,42.08,0,0,1-12.36,3.87,52.8,52.8,0,0,1-16.63.55,54.59,54.59,0,0,1-17.45-5.64c-7-3.55-13.86-7.43-20.79-11.13-4.48-2.38-8.95-4.77-13.51-7-3.78-1.86-7.73-3.36-11.5-5.23-5.63-2.78-11.65-4.39-17.64-6.09-4.6-1.3-9.28-2.34-14-3.41C213.66,375,211.11,374.65,208.3,374.13ZM324,155.59c-.19-.27-.3-.5-.46-.68A71.85,71.85,0,0,0,308.31,142a10.48,10.48,0,0,0-6.76-1.71,66,66,0,0,1-11,.26c-7.89-.54-15.78-1.27-23.64-2.12-5.32-.59-10.61-1.49-15.9-2.32-1.92-.3-3.79-.94-5.72-1.18-3.38-.41-6.77-.68-10.17-.92-8.54-.59-17-.43-25.41,1.62-6.61,1.62-13.12,3.55-18.91,7.22-2.42,1.53-4.43,3.71-6.85,5.23-4.31,2.7-7.82,6.23-11.29,9.87-7.81,8.19-13.47,17.58-16.1,28.65-.6,2.52-1,5.08-1.55,7.67a1.58,1.58,0,0,0,.44,0q11.13-6.81,22.24-13.64a15.2,15.2,0,0,0,5.41-4.75,55.23,55.23,0,0,1,5.18-6.73c4.1-4.76,9.3-8.09,14.87-10.79a46,46,0,0,1,20.54-5,134.92,134.92,0,0,1,14.07.63c3.34.28,6.63,1,9.95,1.51l13.22,2c3.41.53,6.8,1.26,10.24,1.58,4.79.45,9.61.75,14.43.85,5.22.11,10.45.1,15.65-.2a137.78,137.78,0,0,0,14-1.58C318.23,157.66,321.49,158.06,324,155.59ZM289.8,400.76a9,9,0,0,0,1,.75c5.88,3,11.86,5.7,18.34,7.06,2,.42,4.36.87,6.14.2,8.27-3.1,16.48-6.29,25.11-8.28,5.69-1.31,11.35-2.73,17.06-4,4.15-.89,8.38-1.45,12.53-2.36,4.59-1,9.12-2.23,13.67-3.37A82.35,82.35,0,0,0,401,384.17a59.75,59.75,0,0,0,22.53-20.07,122.38,122.38,0,0,0,6.16-10.66,69.8,69.8,0,0,0,7.42-22.18,56.27,56.27,0,0,0,.48-17.38c-.31-2.1-.64-4.2-1-6.29l-.56-.29c0,.21,0,.47-.13.62-5,6.35-10,12.75-15.12,19-2.22,2.7-4.15,5.44-4.66,9a16.57,16.57,0,0,1-.74,3.87c-.82,2-1.95,3.91-2.9,5.88a16.05,16.05,0,0,1-.69,2.06c-.85,1.25-1.88,2.38-2.79,3.59-1.28,1.7-2.45,3.47-3.79,5.11-.66.8-1.65,1.31-2.38,2s-1.43,1.92-2.32,2.67a48.39,48.39,0,0,1-4.06,2.85q-2.62,1.77-5.26,3.51a5.81,5.81,0,0,1-1,.53c-1,.44-2.09.86-3.14,1.29-.42.18-.82.41-1.25.55-.85.27-1.73.43-2.57.73-2.1.73-4.15,1.63-6.29,2.23-1.92.54-3.93.77-5.89,1.15-3.88.76-7.75,1.55-11.63,2.28-5.16,1-10.4,1.63-15.48,2.91-7,1.75-13.84,4-20.76,6a114.84,114.84,0,0,0-18.59,7.74C299.66,395.31,294.82,398.07,289.8,400.76Zm102.59-191.1c0-.84,0-1.24,0-1.63-.44-4.23-.8-8.48-1.37-12.7a37.55,37.55,0,0,0-1.42-5.44,16.26,16.26,0,0,0-3.64-6.76c-4.86-4.31-10-8.31-14.78-12.7-9.52-8.73-17.54-18.88-26.26-28.37q-5.73-6.26-11.77-12.24c-5.27-5.21-11.64-8.92-18.22-12.15-6.35-3.13-13.26-4.58-20.31-5.34a78.36,78.36,0,0,0-13.18-.35,77.17,77.17,0,0,0-18.17,3,66,66,0,0,0-19.68,9.82c-1.85,1.36-3.61,2.85-5.51,4.36.4.26.52.39.65.4,4.76.7,9.51,1.36,14.27,2.06,4.2.63,8.39,1.4,12.61,1.92a14.39,14.39,0,0,0,4.85-.29c4.25-1,8.43-2.13,12.84-2.23a61.14,61.14,0,0,1,15.17,1.76c6.84,1.59,13.18,4.26,18.42,8.86s10.35,9.95,15.36,15.08c2.16,2.21,3.88,4.83,5.95,7.12,3.14,3.49,6.55,6.74,9.6,10.3A133.32,133.32,0,0,0,366.22,192c3.43,2.73,7.21,5,10.81,7.54,2.51,1.75,5,3.61,7.51,5.29S389.53,207.93,392.39,209.66Zm-49.18-77.09a8.18,8.18,0,0,0,.44.76c5.69,6.45,11.36,12.92,17.09,19.33a20.13,20.13,0,0,0,3.88,3.62,43.76,43.76,0,0,0,5.64,2.72c9,4.21,17.49,14.07,22.06,23.45,1.23,2.52,2.67,4.89,2.94,7.8.21,2.17,1.08,4.29,1.25,6.47.51,6.41.88,12.83,1.19,19.26.15,3.24,0,6.49.09,9.74.14,4.86.2,9.74.62,14.58.63,7.08,1.31,14.17,2.43,21.19a148,148,0,0,0,3.51,14.4c1,3.66,2.06,7.29,3.18,10.91.68,2.18,1.53,4.3,2.3,6.45l.43.22a7.59,7.59,0,0,1,.51-.93c4.47-5.9,8.49-12.05,11-19.08a7.24,7.24,0,0,0,.52-3.31c-1-6.27-2.37-12.49-3.13-18.78-.85-7.11-1.34-14.28-1.69-21.43-.46-9.53-.43-19.08-1-28.59a132.84,132.84,0,0,0-2.3-15.57c-1.06-5.74-3.74-10.92-6.47-16a70.29,70.29,0,0,0-7.87-11.19,74,74,0,0,0-13.26-12.1,68.33,68.33,0,0,0-16.26-9,66.37,66.37,0,0,0-15.62-4C351,133.05,347.27,132.89,343.21,132.57ZM239.36,159.29c-7.34-1.12-14.41-1.65-21.49-.46-1.82.31-3.76.24-5.31,1.71a161.11,161.11,0,0,1-24.18,18.89q-10.45,6.63-21,13A129.73,129.73,0,0,0,146,207.93c-9.63,8.87-15.95,19.69-20,31.95a57.26,57.26,0,0,0-2.55,14.81,72.05,72.05,0,0,0,2,22.68,128.09,128.09,0,0,0,4.35,12.87c.94,2.43,2.31,4.7,3.67,7.41,1.08-3.42,2-6.38,2.95-9.3,1.91-5.61,3.94-11.19,5.81-16.81a11.88,11.88,0,0,0,.88-4.92,48.46,48.46,0,0,1,1-19.07,58.9,58.9,0,0,1,6-14.56c4.7-7.94,11.58-13.72,19.2-18.64,5.59-3.62,11.38-6.91,17-10.47q8.67-5.5,17.18-11.26c4.09-2.78,8.35-5.41,12-8.73,6.24-5.7,12.08-11.84,18-17.88C235.53,163.94,237.33,161.64,239.36,159.29Zm-64,57.06c-2.27,1.55-4.28,2.9-6.26,4.28a54.43,54.43,0,0,0-12,11.13,8.74,8.74,0,0,0-1.43,3.5c-.38,1.76-.33,3.6-.71,5.36-1.46,6.89-2.73,13.83-4.61,20.6-2.13,7.68-4.85,15.19-7.29,22.79-2.12,6.64-4.36,13.25-6.26,20a52.6,52.6,0,0,0-1.88,10.77c-.31,5.14-.13,10.33,0,15.49a21.64,21.64,0,0,0,.69,5.06c.94,3.61,2,7.19,3.13,10.76A53.13,53.13,0,0,0,146,360.49c5.69,8.37,12.2,15.95,20.95,21.4,3.14,1.95,6,4.33,9.46,5.77,2.16.91,4.35,1.76,6.71,2.72L175.9,372c-.63-1.62-1.16-3.28-1.86-4.88-1.15-2.64-1.85-5.43-4.24-7.55a42.27,42.27,0,0,1-9.37-11.85,61.73,61.73,0,0,1-5.6-15.69,43,43,0,0,1-.4-15.87,105.59,105.59,0,0,1,3.31-14.12c1.76-5.93,3.88-11.74,5.84-17.61,1.66-5,3.58-9.85,4.91-14.9,1.86-7.1,3.43-14.28,4.85-21.48a108.16,108.16,0,0,0,1.59-12.82c.32-4.4.31-8.83.41-13.25C175.38,220.25,175.35,218.5,175.35,216.35Zm-11.92,85.18-.47.13c-.82,3-1.8,5.91-2.41,8.93a82.52,82.52,0,0,0-1.47,10.24c-.15,2.25-.25,4.81.66,6.75,1.83,3.89,4.54,7.35,6.58,11.16,2.71,5.07,5.25,10.25,7.62,15.49,2.2,4.87,4.09,9.87,6.1,14.83.73,1.82,1.39,3.67,2.1,5.5,1.47,3.76,3,7.5,4.43,11.26a88.91,88.91,0,0,0,13.82,23.38A61.35,61.35,0,0,0,219.75,425c6.95,3.64,14.27,6.54,22.15,7.64,3.42.47,6.8,1.23,10.23,1.47a67.36,67.36,0,0,0,20.3-1.83c2.8-.67,5.52-1.7,8.56-2.66l-.88-.52c-7.37-4-14.72-8.06-22.11-12a20.34,20.34,0,0,0-5-2.18c-2.42-.55-4.95-.63-7.43-.94-8.67-1.08-16.09-5-23-10.12-8.61-6.39-13.67-15.35-17.75-25-1.76-4.17-3.34-8.42-5-12.62-1.83-4.53-3.7-9.05-5.52-13.58-2.37-5.93-4.69-11.86-8-17.38-2-3.4-3.49-7.13-5.63-10.43-3.59-5.54-7.44-10.91-11.33-16.24C167.55,306.09,165.41,303.87,163.43,301.53Zm205.62,67.41a8,8,0,0,0,1.59,0,103.61,103.61,0,0,0,10.62-3.12,70.45,70.45,0,0,0,9.24-4.32c1.51-.89,2.78-1.46,3.59-3.37,1.32-3.15,3.44-6,5.23-8.91,1.06-1.75,2.08-3.51,3.19-5.22a313,313,0,0,1,22.71-30.08c7-8.43,13.13-17.42,17.43-27.56,3-7.16,5.1-14.6,5.15-22.42a111.88,111.88,0,0,0-.9-13c-.53-4.81-1.28-9.6-2.08-14.38a17.74,17.74,0,0,0-1.46-3.34,44,44,0,0,0-2-5.28A106.42,106.42,0,0,0,425,206.12c-1-1-2.07-2-3.11-2.92a56.47,56.47,0,0,0,0,5.83c.12,6.38.15,12.76.32,19.14a31.59,31.59,0,0,0,.69,6.52c.38,1.6,1.43,3,2.11,4.58a45.23,45.23,0,0,1,3.76,14.12,61.8,61.8,0,0,1-.42,13.79,46.61,46.61,0,0,1-5.9,17c-3.82,6.84-8.76,12.88-13.64,19-5.11,6.36-10.2,12.73-15.11,19.23a135.71,135.71,0,0,0-13.57,22.14C376.25,352.41,372.82,360.57,369.05,368.94Z"/><path class="cls-2" d="M265.63,281.58c1.23-1.42,2.45-2.85,3.69-4.25,4.32-4.88,9.15-9.31,14.88-12.29,3.53-1.83,7.82-2.41,11.85-3a45,45,0,0,1,24.41,3.28,46.79,46.79,0,0,1,16.79,11.42c1.49,1.62,3.22,3,4.64,4.69,5.39,6.33,6.49,13.46,3.54,21.18a32.62,32.62,0,0,1-3.2,6.87c-3.07,4.45-7.68,7.08-12.63,8.83-5.4,1.92-11,3.44-16.53,4.86A136.4,136.4,0,0,1,298,326.31c-5.63.78-11.33,1.08-17,1.35a55.37,55.37,0,0,1-7.46-.58c-2.73-.25-5.45-.59-8.18-.8-4.14-.32-8.28-.72-12.43-.78-3.19,0-6.38.53-9.58.6-6.09.12-12.22.14-16.94-4.68a7.7,7.7,0,0,1-2.06-7.19c.62-3.07,1.47-6.1,2.13-9.17a18.26,18.26,0,0,0,.13-3c.27-6.2.6-12.41.79-18.61.27-9.21,4.21-17.34,7.51-25.63,3.24-8.13,6.72-16.16,10.09-24.24a3,3,0,0,0,.2-1c.12-3.5.33-7,.3-10.5-.07-7.27,3.58-12.32,9.43-16a22.65,22.65,0,0,1,14.82-3.39,62.92,62.92,0,0,1,8,1.87c2.62.64,5.23,1.32,7.86,1.94,3.83.9,5.46,3.65,4.37,7.42a21.38,21.38,0,0,0,.16,6.87c1.14,3.2.56,5.39-2.82,7.7-4,2.69-8,5.5-12.36,7.36-5.49,2.32-7.75,6.13-8,11.8-.26,6.23-.81,12.45-1.21,18.67-.07,1.05,0,2.11-.08,3.16-.17,3.35-.36,6.69-.53,10,0,.63,0,1.27,0,1.9Z"/><path class="cls-2" d="M208.3,374.13c2.81.52,5.36.9,7.86,1.47,4.67,1.07,9.35,2.11,14,3.41,6,1.7,12,3.31,17.64,6.09,3.77,1.87,7.72,3.37,11.5,5.23,4.56,2.23,9,4.62,13.51,7,6.93,3.7,13.78,7.58,20.79,11.13A54.59,54.59,0,0,0,311,414.1a52.8,52.8,0,0,0,16.63-.55A42.08,42.08,0,0,0,340,409.68c3.27-1.76,6.31-3.94,9.51-5.85a12.5,12.5,0,0,1,3.23-1.33c2-.53,4.1-.9,6.16-1.3,4.71-.92,9.43-1.79,14.14-2.74a77.3,77.3,0,0,1,7.82-1.4c-1.44,2.36-2.75,4.81-4.34,7.05A66.18,66.18,0,0,1,360,420.74a77.7,77.7,0,0,1-23.48,10.66c-8.49,2.33-17.11,2.27-25.8,2-3.79-.12-7.24-1.39-10.82-2.2a82.84,82.84,0,0,1-21.46-8.47c-7.76-4.22-15.45-8.58-23.29-12.65-5.3-2.74-10.74-5.22-16.23-7.57a83.32,83.32,0,0,0-13.29-4.85c-4.28-1-6.51-4-8.74-7.1C213.32,385.6,210.79,380.09,208.3,374.13Z"/><path class="cls-2" d="M324,155.59c-2.54,2.47-5.8,2.07-8.73,2.54a137.78,137.78,0,0,1-14,1.58c-5.2.3-10.43.31-15.65.2-4.82-.1-9.64-.4-14.43-.85-3.44-.32-6.83-1.05-10.24-1.58l-13.22-2c-3.32-.51-6.61-1.23-9.95-1.51a134.92,134.92,0,0,0-14.07-.63,46,46,0,0,0-20.54,5c-5.57,2.7-10.77,6-14.87,10.79a55.23,55.23,0,0,0-5.18,6.73,15.2,15.2,0,0,1-5.41,4.75q-11.11,6.82-22.24,13.64a1.58,1.58,0,0,1-.44,0c.52-2.59.95-5.15,1.55-7.67,2.63-11.07,8.29-20.46,16.1-28.65,3.47-3.64,7-7.17,11.29-9.87,2.42-1.52,4.43-3.7,6.85-5.23,5.79-3.67,12.3-5.6,18.91-7.22,8.38-2.05,16.87-2.21,25.41-1.62,3.4.24,6.79.51,10.17.92,1.93.24,3.8.88,5.72,1.18,5.29.83,10.58,1.73,15.9,2.32,7.86.85,15.75,1.58,23.64,2.12a66,66,0,0,0,11-.26,10.48,10.48,0,0,1,6.76,1.71,71.85,71.85,0,0,1,15.26,12.89C323.73,155.09,323.84,155.32,324,155.59Z"/><path class="cls-2" d="M289.8,400.76c5-2.69,9.86-5.45,14.84-7.9a114.84,114.84,0,0,1,18.59-7.74c6.92-2,13.78-4.21,20.76-6,5.08-1.28,10.32-1.94,15.48-2.91,3.88-.73,7.75-1.52,11.63-2.28,2-.38,4-.61,5.89-1.15,2.14-.6,4.19-1.5,6.29-2.23.84-.3,1.72-.46,2.57-.73.43-.14.83-.37,1.25-.55,1-.43,2.1-.85,3.14-1.29a5.81,5.81,0,0,0,1-.53q2.64-1.74,5.26-3.51a48.39,48.39,0,0,0,4.06-2.85c.89-.75,1.49-1.83,2.32-2.67s1.72-1.25,2.38-2c1.34-1.64,2.51-3.41,3.79-5.11.91-1.21,1.94-2.34,2.79-3.59a16.05,16.05,0,0,0,.69-2.06c.95-2,2.08-3.86,2.9-5.88a16.57,16.57,0,0,0,.74-3.87c.51-3.54,2.44-6.28,4.66-9,5.14-6.25,10.1-12.65,15.12-19,.12-.15.09-.41.13-.62l.56.29c.32,2.09.65,4.19,1,6.29a56.27,56.27,0,0,1-.48,17.38,69.8,69.8,0,0,1-7.42,22.18,122.38,122.38,0,0,1-6.16,10.66A59.75,59.75,0,0,1,401,384.17a82.35,82.35,0,0,1-17.41,6.63c-4.55,1.14-9.08,2.37-13.67,3.37-4.15.91-8.38,1.47-12.53,2.36-5.71,1.23-11.37,2.65-17.06,4-8.63,2-16.84,5.18-25.11,8.28-1.78.67-4.15.22-6.14-.2-6.48-1.36-12.46-4.1-18.34-7.06A9,9,0,0,1,289.8,400.76Z"/><path class="cls-2" d="M392.39,209.66c-2.86-1.73-5.41-3.18-7.85-4.79s-5-3.54-7.51-5.29c-3.6-2.51-7.38-4.81-10.81-7.54a133.32,133.32,0,0,1-18.42-17.92c-3.05-3.56-6.46-6.81-9.6-10.3-2.07-2.29-3.79-4.91-5.95-7.12-5-5.13-10-10.34-15.36-15.08s-11.58-7.27-18.42-8.86A61.14,61.14,0,0,0,283.3,131c-4.41.1-8.59,1.27-12.84,2.23a14.39,14.39,0,0,1-4.85.29c-4.22-.52-8.41-1.29-12.61-1.92-4.76-.7-9.51-1.36-14.27-2.06-.13,0-.25-.14-.65-.4,1.9-1.51,3.66-3,5.51-4.36A66,66,0,0,1,263.27,115a77.17,77.17,0,0,1,18.17-3,78.36,78.36,0,0,1,13.18.35c7.05.76,14,2.21,20.31,5.34,6.58,3.23,12.95,6.94,18.22,12.15q6,6,11.77,12.24c8.72,9.49,16.74,19.64,26.26,28.37,4.78,4.39,9.92,8.39,14.78,12.7a16.26,16.26,0,0,1,3.64,6.76,37.55,37.55,0,0,1,1.42,5.44c.57,4.22.93,8.47,1.37,12.7C392.43,208.42,392.39,208.82,392.39,209.66Z"/><path class="cls-2" d="M343.21,132.57c4.06.32,7.76.48,11.42.93a66.37,66.37,0,0,1,15.62,4,68.33,68.33,0,0,1,16.26,9,74,74,0,0,1,13.26,12.1,70.29,70.29,0,0,1,7.87,11.19c2.73,5.05,5.41,10.23,6.47,16a132.84,132.84,0,0,1,2.3,15.57c.59,9.51.56,19.06,1,28.59.35,7.15.84,14.32,1.69,21.43.76,6.29,2.14,12.51,3.13,18.78a7.24,7.24,0,0,1-.52,3.31c-2.47,7-6.49,13.18-11,19.08a7.59,7.59,0,0,0-.51.93l-.43-.22c-.77-2.15-1.62-4.27-2.3-6.45-1.12-3.62-2.21-7.25-3.18-10.91a148,148,0,0,1-3.51-14.4c-1.12-7-1.8-14.11-2.43-21.19-.42-4.84-.48-9.72-.62-14.58-.1-3.25.06-6.5-.09-9.74-.31-6.43-.68-12.85-1.19-19.26-.17-2.18-1-4.3-1.25-6.47-.27-2.91-1.71-5.28-2.94-7.8-4.57-9.38-13.09-19.24-22.06-23.45a43.76,43.76,0,0,1-5.64-2.72,20.13,20.13,0,0,1-3.88-3.62c-5.73-6.41-11.4-12.88-17.09-19.33A8.18,8.18,0,0,1,343.21,132.57Z"/><path class="cls-2" d="M239.36,159.29c-2,2.35-3.83,4.65-5.87,6.72-5.93,6-11.77,12.18-18,17.88-3.63,3.32-7.89,6-12,8.73q-8.5,5.76-17.18,11.26c-5.63,3.56-11.42,6.85-17,10.47-7.62,4.92-14.5,10.7-19.2,18.64a58.9,58.9,0,0,0-6,14.56,48.46,48.46,0,0,0-1,19.07,11.88,11.88,0,0,1-.88,4.92c-1.87,5.62-3.9,11.2-5.81,16.81-1,2.92-1.87,5.88-2.95,9.3-1.36-2.71-2.73-5-3.67-7.41a128.09,128.09,0,0,1-4.35-12.87,72.05,72.05,0,0,1-2-22.68A57.26,57.26,0,0,1,126,239.88c4-12.26,10.35-23.08,20-31.95a129.73,129.73,0,0,1,21.34-15.46q10.59-6.39,21-13a161.11,161.11,0,0,0,24.18-18.89c1.55-1.47,3.49-1.4,5.31-1.71C225,157.64,232,158.17,239.36,159.29Z"/><path class="cls-2" d="M175.35,216.35c0,2.15,0,3.9,0,5.64-.1,4.42-.09,8.85-.41,13.25a108.16,108.16,0,0,1-1.59,12.82c-1.42,7.2-3,14.38-4.85,21.48-1.33,5-3.25,9.94-4.91,14.9-2,5.87-4.08,11.68-5.84,17.61a105.59,105.59,0,0,0-3.31,14.12,43,43,0,0,0,.4,15.87,61.73,61.73,0,0,0,5.6,15.69,42.27,42.27,0,0,0,9.37,11.85c2.39,2.12,3.09,4.91,4.24,7.55.7,1.6,1.23,3.26,1.86,4.88l7.19,18.37c-2.36-1-4.55-1.81-6.71-2.72-3.45-1.44-6.32-3.82-9.46-5.77-8.75-5.45-15.26-13-20.95-21.4a53.13,53.13,0,0,1-7.28-14.44c-1.09-3.57-2.19-7.15-3.13-10.76a21.64,21.64,0,0,1-.69-5.06c-.08-5.16-.26-10.35,0-15.49A52.6,52.6,0,0,1,136.8,304c1.9-6.71,4.14-13.32,6.26-20,2.44-7.6,5.16-15.11,7.29-22.79,1.88-6.77,3.15-13.71,4.61-20.6.38-1.76.33-3.6.71-5.36a8.74,8.74,0,0,1,1.43-3.5,54.43,54.43,0,0,1,12-11.13C171.07,219.25,173.08,217.9,175.35,216.35Z"/><path class="cls-2" d="M163.43,301.53c2,2.34,4.12,4.56,5.92,7,3.89,5.33,7.74,10.7,11.33,16.24,2.14,3.3,3.62,7,5.63,10.43,3.28,5.52,5.6,11.45,8,17.38,1.82,4.53,3.69,9.05,5.52,13.58,1.68,4.2,3.26,8.45,5,12.62,4.08,9.62,9.14,18.58,17.75,25,6.88,5.1,14.3,9,23,10.12,2.48.31,5,.39,7.43.94a20.34,20.34,0,0,1,5,2.18c7.39,4,14.74,8,22.11,12l.88.52c-3,1-5.76,2-8.56,2.66a67.36,67.36,0,0,1-20.3,1.83c-3.43-.24-6.81-1-10.23-1.47-7.88-1.1-15.2-4-22.15-7.64a61.35,61.35,0,0,1-19.36-15.76,88.91,88.91,0,0,1-13.82-23.38c-1.47-3.76-3-7.5-4.43-11.26-.71-1.83-1.37-3.68-2.1-5.5-2-5-3.9-10-6.1-14.83-2.37-5.24-4.91-10.42-7.62-15.49-2-3.81-4.75-7.27-6.58-11.16-.91-1.94-.81-4.5-.66-6.75a82.52,82.52,0,0,1,1.47-10.24c.61-3,1.59-6,2.41-8.93Z"/><path class="cls-2" d="M369.05,368.94c3.77-8.37,7.2-16.53,11.08-24.47a135.71,135.71,0,0,1,13.57-22.14c4.91-6.5,10-12.87,15.11-19.23,4.88-6.08,9.82-12.12,13.64-19a46.61,46.61,0,0,0,5.9-17,61.8,61.8,0,0,0,.42-13.79A45.23,45.23,0,0,0,425,239.27c-.68-1.54-1.73-3-2.11-4.58a31.59,31.59,0,0,1-.69-6.52c-.17-6.38-.2-12.76-.32-19.14a56.47,56.47,0,0,1,0-5.83c1,1,2.13,1.89,3.11,2.92a106.42,106.42,0,0,1,16.33,21.76,44,44,0,0,1,2,5.28,17.74,17.74,0,0,1,1.46,3.34c.8,4.78,1.55,9.57,2.08,14.38a111.88,111.88,0,0,1,.9,13c-.05,7.82-2.12,15.26-5.15,22.42-4.3,10.14-10.41,19.13-17.43,27.56A313,313,0,0,0,402.51,344c-1.11,1.71-2.13,3.47-3.19,5.22-1.79,2.95-3.91,5.76-5.23,8.91-.81,1.91-2.08,2.48-3.59,3.37a70.45,70.45,0,0,1-9.24,4.32,103.61,103.61,0,0,1-10.62,3.12A8,8,0,0,1,369.05,368.94Z"/></svg>